<svg width="1006" height="1000" viewBox="0 0 1006 1000" fill="none" xmlns="http://www.w3.org/2000/svg">
<g filter="url(#filter0_ii_6_27)">
<rect x="6" width="1000" height="1000" rx="245" fill="url(#paint0_linear_6_27)"/>
</g>
<path d="M499.985 936.974C593.534 936.974 669.371 921.806 669.371 903.095C669.371 884.384 593.534 869.216 499.985 869.216C406.436 869.216 330.599 884.384 330.599 903.095C330.599 921.806 406.436 936.974 499.985 936.974Z" fill="#D8C997" fill-opacity="0.06"/>
<path d="M772.926 356.81C768.933 596.879 599.89 774.284 529.882 837.592C512.696 853.133 487.225 853.067 470.042 837.524C399.148 773.398 227 592.523 227 348.152C227 190.82 348.996 63.2434 499.569 63.0006C653.133 62.754 775.595 196.434 772.926 356.81Z" fill="#FFD500"/>
<path d="M499.999 550.489C607.979 550.489 695.513 459.057 695.513 346.271C695.513 233.484 607.979 142.052 499.999 142.052C392.02 142.052 304.485 233.484 304.485 346.271C304.485 459.057 392.02 550.489 499.999 550.489Z" fill="white"/>
<path d="M650.861 216.38C617.074 187.3 573.772 169.815 526.579 169.815C418.604 169.815 331.064 261.251 331.064 374.032C331.064 423.326 347.804 468.555 375.645 503.846C332.181 466.391 304.485 409.699 304.485 346.27C304.485 233.489 392.025 142.052 499.999 142.052C560.726 142.052 615.002 170.982 650.861 216.38Z" fill="#FFE082"/>
<path d="M772.927 356.81C768.927 596.883 599.883 774.279 529.876 837.596C512.703 853.124 487.224 853.068 470.051 837.521C436.966 807.594 381.844 752.258 332.452 676.933C378.33 696.921 459.275 722.162 537.841 697.298C653.618 660.652 830.879 379.622 678.936 133.809C737.807 188.034 774.405 268.366 772.927 356.81Z" fill="#DEB900"/>
<path d="M454.735 86.3094C419.26 92.131 320.937 118.431 280.052 233.455C275.475 246.333 292.122 255.527 299.623 244.245C330.864 197.262 383.017 140.275 458.463 124.574C463.567 123.513 467.23 118.807 467.317 113.375L467.563 98.0166C467.677 90.8078 461.554 85.1914 454.735 86.3094Z" fill="#FFE37C"/>
<path d="M495.523 206L475.208 307.261H379.535L364 384.739H459.599L439.284 486H512.477L532.792 384.739H628.465L644 307.261H548.326L568.641 206H495.523Z" fill="#FF6A00"/>
<defs>
<filter id="filter0_ii_6_27" x="-14" y="-20" width="1040" height="1040" filterUnits="userSpaceOnUse" color-interpolation-filters="sRGB">
<feFlood flood-opacity="0" result="BackgroundImageFix"/>
<feBlend mode="normal" in="SourceGraphic" in2="BackgroundImageFix" result="shape"/>
<feColorMatrix in="SourceAlpha" type="matrix" values="0 0 0 0 0 0 0 0 0 0 0 0 0 0 0 0 0 0 127 0" result="hardAlpha"/>
<feOffset dx="20" dy="20"/>
<feGaussianBlur stdDeviation="37"/>
<feComposite in2="hardAlpha" operator="arithmetic" k2="-1" k3="1"/>
<feColorMatrix type="matrix" values="0 0 0 0 0.960784 0 0 0 0 0.968627 0 0 0 0 0.972549 0 0 0 1 0"/>
<feBlend mode="normal" in2="shape" result="effect1_innerShadow_6_27"/>
<feColorMatrix in="SourceAlpha" type="matrix" values="0 0 0 0 0 0 0 0 0 0 0 0 0 0 0 0 0 0 127 0" result="hardAlpha"/>
<feOffset dx="-20" dy="-20"/>
<feGaussianBlur stdDeviation="32"/>
<feComposite in2="hardAlpha" operator="arithmetic" k2="-1" k3="1"/>
<feColorMatrix type="matrix" values="0 0 0 0 0.690196 0 0 0 0 0.733333 0 0 0 0 0.796078 0 0 0 1 0"/>
<feBlend mode="normal" in2="effect1_innerShadow_6_27" result="effect2_innerShadow_6_27"/>
</filter>
<linearGradient id="paint0_linear_6_27" x1="345.5" y1="66" x2="706.5" y2="934" gradientUnits="userSpaceOnUse">
<stop stop-color="#EDF5FD"/>
<stop offset="1" stop-color="#CBD4DD"/>
</linearGradient>
</defs>
</svg>
