 <svg viewBox="0 0 546 787" xmlns="http://www.w3.org/2000/svg">
    <path
      d="M545.926 293.81C541.933 533.879 372.89 711.284 302.881 774.591C285.696 790.133 260.225 790.067 243.041 774.524C172.148 710.398 0 529.523 0 285.152C0 127.82 121.995 0.243143 272.568 0.00034054C426.133 -0.246226 548.595 133.434 545.926 293.81Z"
      fill="#FFD500"
    />
    <path
      d="M272.999 487.488C380.978 487.488 468.513 396.057 468.513 283.27C468.513 170.484 380.978 79.0522 272.999 79.0522C165.019 79.0522 77.4844 170.484 77.4844 283.27C77.4844 396.057 165.019 487.488 272.999 487.488Z"
      fill="white"
    />
    <path
      d="M423.861 153.38C390.073 124.3 346.772 106.814 299.578 106.814C191.604 106.814 104.064 198.251 104.064 311.032C104.064 360.326 120.804 405.555 148.644 440.846C105.181 403.391 77.4844 346.699 77.4844 283.269C77.4844 170.489 165.024 79.0522 272.999 79.0522C333.726 79.0522 388.001 107.981 423.861 153.38Z"
      fill="#FFE082"
    />
    <path
      d="M545.927 293.81C541.926 533.883 372.883 711.279 302.876 774.596C285.703 790.124 260.223 790.067 243.05 774.521C209.966 744.594 154.843 689.257 105.451 613.932C151.33 633.921 232.274 659.161 310.841 634.298C426.618 597.651 603.878 316.622 451.936 70.8083C510.806 125.034 547.404 205.366 545.927 293.81Z"
      fill="#DEB900"
    />
    <path
      d="M227.735 23.3092C192.259 29.1308 93.9366 55.4305 53.0517 170.454C48.4747 183.332 65.1213 192.527 72.6229 181.245C103.864 134.262 156.016 77.2751 231.463 61.574C236.566 60.5124 240.23 55.807 240.316 50.375L240.563 35.0163C240.677 27.8076 234.553 22.1911 227.735 23.3092Z"
      fill="#FFE37C"
    />
    <path xmlns="http://www.w3.org/2000/svg" d="M268.523 143L248.208 244.261H152.535L137 321.739H232.599L212.284 423H285.477L305.792 321.739H401.465L417 244.261H321.326L341.641 143H268.523Z" fill="#FF6A00">
      <animateTransform
        attributeName="transform"
        attributeType="XML"
        type="scale"
        values="1;1.05;1"
        dur="3s"
        repeatCount="indefinite"
        additive="sum"
      />
    </path>
  </svg>
